<svg width="14" height="14" viewBox="0 0 14 14" fill="none" xmlns="http://www.w3.org/2000/svg">
<g id="Group 1261155255">
<path id="Star 6" d="M7 0L8.7305 1.67408L11.1145 1.33688L11.5305 3.7084L13.6574 4.83688L12.6 7L13.6574 9.16312L11.5305 10.2916L11.1145 12.6631L8.7305 12.3259L7 14L5.2695 12.3259L2.8855 12.6631L2.4695 10.2916L0.342604 9.16312L1.4 7L0.342604 4.83688L2.4695 3.7084L2.8855 1.33688L5.2695 1.67408L7 0Z" fill="url(#paint0_linear_5342_32959)"/>
<path id="Vector" d="M10.8612 5.84498L5.88811 10.4974L3.14003 7.92821C2.84395 7.65121 2.84395 7.23324 3.14003 6.95625C3.43789 6.67761 3.88291 6.67761 4.18076 6.95625L5.88811 8.55349L9.8223 4.87304C10.1202 4.5944 10.5652 4.5944 10.8612 4.87304C11.1591 5.15004 11.1591 5.56634 10.8612 5.84498Z" fill="white"/>
</g>
<defs>
<linearGradient id="paint0_linear_5342_32959" x1="-6.84521e-08" y1="7.00003" x2="14" y2="7.00003" gradientUnits="userSpaceOnUse">
<stop stop-color="#9BB8F0"/>
<stop offset="0.497917" stop-color="#6491E9"/>
<stop offset="1" stop-color="#556DEA"/>
</linearGradient>
</defs>
</svg>
